<svg version="1.0" xmlns="http://www.w3.org/2000/svg" width="1690.667" height="1706.667" viewBox="0 0 1268 1280"><path d="M588.5.6c-2.2.2-10.3.9-18 1.4-55.7 4.3-117.6 18-170.3 37.6C280.9 84.1 179.7 160.2 103.3 263c-17.6 23.7-28.5 42.3-43.4 74.2C27 407.5 7.9 479.9 1.5 557.5c-2.2 26.9-1.7 32.3 1 10.8 8.2-64.4 27.6-132.2 54.1-188.4C107 273 183.2 184.9 282 119.5c26.5-17.6 39.4-25.1 66-38.3 70.8-35.3 146.7-56 232.5-63.4 22.2-1.9 79.5-1.6 102.5.5 83.8 7.8 161.1 30.2 233 67.5 182.3 94.6 306.2 268.9 334.9 471.2 7.2 50.4 8 108.8 2.1 159.9-8.3 72.5-29 142.6-61.1 207.1-80.1 160.7-224.5 280.1-395.6 327-38.8 10.6-79.2 17.5-123.8 21.2-19.2 1.5-71.6 1.5-91-.1-71.4-5.7-135.2-20.7-194-45.7-20.6-8.8-59.5-28.2-77-38.4-99.9-58.7-182-143.9-237.4-246.7-18.7-34.8-40.2-88.2-50.6-126-1.6-5.7-3-10.1-3.2-9.9-.8.7 5.7 23.6 11.7 41.8 25.4 76.2 67.6 150.5 120.6 212.3 14.4 16.8 42.3 45.2 58.8 59.9 131.6 117.3 308 174.6 483.6 157 200.9-20 379.3-133.2 483.5-306.8 49.3-82 77.8-169.2 88.2-269.6 1.3-12.5 1.7-26.2 1.7-56.5.1-40.7-.5-52.4-4.5-83-22.1-172.5-111.9-326.6-251.7-431.8-85.8-64.6-187.5-107-293.3-122.1C685 1.9 669.6.8 630 .5c-20.6-.2-39.3-.1-41.5.1z"/><path d="M587.6 32c-42.9 2.8-90 10.8-130.4 22.1C298.6 98.5 160.4 209.3 82.3 354.5c-23.1 42.9-43.3 112.2-51.8 178-2.5 19.5-1.6 18.3 2.9-4 12-58.3 27.2-102.9 52.5-153.5 40.2-80.4 97-149.9 168.1-205.9 17.9-14.1 52.5-37.5 71.9-48.6C446.9 51.4 584.8 26 723 47.6c85.6 13.3 167.9 45.6 241.4 94.7 75.5 50.4 140.3 119.4 187.1 199.2 11.5 19.6 29.6 56.6 38.1 78 21.8 55.1 35.1 109.9 40.9 169.5 2 19.6 2.8 77.3 1.4 96.5-5.8 80.8-26.3 156.7-61.5 227.5-30.5 61.2-63.9 107.9-113.9 159-16.2 16.5-17.3 17.8-7.3 8.7 20.3-18.8 47.5-49.6 67.3-76.2 39.8-53.5 73.1-119 92.8-182.6 13.2-42.4 21-81.8 25.3-127.4 2.1-22.1 2.4-80.3.5-100.5-7.4-81.2-26-148.7-60.1-218.6-40.3-82.7-93.1-149.3-164.6-207.6C916.2 91 804 45.7 678 33.5c-19.2-1.9-71.6-2.7-90.4-1.5z"/><path d="M583.1 59c-81.2 6.3-154.3 26.7-225.6 62.8-39.9 20.2-76.9 44.7-112.6 74.2-18.9 15.7-59.8 57.1-70.1 71C123.6 336 87 421.4 71.4 507.9c-3.4 19-2.9 19.2 1.6.6 13.6-56.8 39.9-118.3 72-168.6C204.4 246.8 287.6 174 388 127c58.3-27.3 116.5-42.9 187-50.2 19.6-2 90.3-1.7 110 .5 99.2 11.2 181.1 40.7 260.9 94 50.8 33.9 101.3 81.6 137.7 130.2C1149.4 389 1186.9 488 1197.1 601c1.6 17.8 1.7 68.6.1 87.5-10.3 121-54.3 229.2-131.1 322-15.1 18.3-52.9 56.2-70.6 70.9-58.4 48.6-121.3 83.5-191.6 106.4-36.7 12.1-74.6 20.1-116.9 24.7-19.8 2.2-72.6 3.1-95 1.6-88.3-5.9-172.9-31-245.6-72.7-16.3-9.4-50.4-32.2-64.9-43.4-84.1-65.1-147.1-148.7-185-245.5-13.6-34.5-24.6-75-30.9-113-3.3-19.9-3.6-21.1-3-13.5.7 9 4.9 32.8 8.5 49 35.4 156.1 135.5 291 275.3 370.9 70 40 143.2 63.5 227.1 72.7 18.9 2.1 77.4 3 97.6 1.5 98.7-7.4 186.7-36.2 269.9-88.4 34.4-21.6 68.7-49.2 99.5-80.1 88.2-88.5 146-203.5 163.4-325.1 4.5-31.3 5.5-47.5 5.5-85s-1-53.7-5.5-85c-15.4-107.2-63.3-211.8-135.8-296-12.4-14.4-37.5-39.9-52.7-53.6-71.2-63.7-156.2-108.7-248.9-131.8-28.1-6.9-55.3-11.5-90.5-15.2-13.6-1.4-78.2-2-92.9-.9z"/><path d="M584 94.1C447.7 105 324.6 162.2 229.1 258.9c-34.5 35-62.5 72-87.1 115.3-14.8 26-31 72-40.3 114.3-4.2 18.9-8.4 43.3-9.1 53.1-.5 5.7 0 4.2 2.8-8.6 19.3-88.8 58.8-169.1 117.8-239.2 14.3-17 47.7-50.4 63.8-63.8 80.6-67 175.2-109.2 275.5-122.9 24.2-3.3 34.5-4.1 62.5-4.8 109.2-2.4 216 27.3 305.5 85.1 36.1 23.3 64.5 46.6 96 78.7 115.3 117.8 169.9 278 150.9 442.9-11.5 100.1-51.8 196.3-115.6 275.7-13.9 17.3-26.7 31.4-45.2 49.8-8.9 8.8-12.9 13.2-9.1 9.8 10.1-8.8 35.6-35.1 46.1-47.3 44.5-52.3 81.2-116.9 102.7-181 20.6-61.2 30.2-125.2 28.3-189-1.6-57.1-10-104.7-28-158.6-35.5-106-101.7-197.9-190.8-265-81.2-61.1-176.6-97.7-282.3-108.4-14.5-1.5-74.9-2.1-89.5-.9z"/><path d="M593 124.1c-169.7 10.2-322.7 101.4-413.8 246.6-10.4 16.6-16.2 28.2-23.5 46.8-15.9 40.6-25.7 78.4-31.6 121.5-3.8 27.7-4.8 49.5-4.2 89 .2 14.8 1.9 10.8 2-4.8.3-42.6 12.4-104.4 29.8-151.5C199 343.3 297.5 237.8 421.5 182.9c104.6-46.3 218.6-56.1 330.2-28.3 36 8.9 66.5 20 98.8 35.9 48.9 24 89.6 53 129.4 92 83.6 82 134 180.7 149.1 292 5.6 41.5 6.3 84.2 2 124.5-12.4 115.8-63.5 222.2-146.4 304.5-81.1 80.5-183.8 130.2-296.1 143.4-30.1 3.6-76.9 4.6-102.5 2.2-66.4-6.1-120.5-20.9-177.5-48.5-103.2-50-187-133.8-236.1-236.1-6.8-14.2-15.9-35.4-19.4-45.3-1.3-3.4-2.5-6.1-2.7-5.9-.2.3 1.6 5.8 4.1 12.3 20.6 55.5 52.3 108.5 92.5 155.4 20.8 24.2 53.3 54.2 81.3 75.1 42.6 31.8 94.6 58.5 146.3 75.2 193.9 62.8 406.5 4 542.2-149.8 55.9-63.3 96.9-143.7 115.3-225.8 26.2-117.1 11-240.8-42.5-346.6-42.3-83.7-107.9-155.8-187.4-206-91.2-57.6-200.5-85.5-309.1-79zM60.2 707.5c0 1.6.2 2.2.5 1.2.2-.9.2-2.3 0-3-.3-.6-.5.1-.5 1.8zM61.2 716c0 1.9.2 2.7.5 1.7.2-.9.2-2.5 0-3.5-.3-.9-.5-.1-.5 1.8zM18.1 802.6c0 1.1.3 1.4.6.6.3-.7.2-1.6-.1-1.9-.3-.4-.6.2-.5 1.3z"/></svg>